<mxfile host="drawio-plugin" modified="2023-02-03T15:46:04.153Z" agent="5.0 (Windows NT 6.2; Win64; x64) AppleWebKit/537.36 (KHTML, like Gecko) Chrome/98.0.4758.102 Safari/537.36" etag="5cpbO3bLFJPTQsOGLrvg" version="15.5.4" type="embed"><diagram id="R2lEEEUBdFMjLlhIrx00" name="Page-1"><mxGraphModel dx="714" dy="520" grid="0" gridSize="10" guides="1" tooltips="1" connect="1" arrows="1" fold="1" page="1" pageScale="1" pageWidth="850" pageHeight="1100" math="0" shadow="0" extFonts="Permanent Marker^https://fonts.googleapis.com/css?family=Permanent+Marker"><root><mxCell id="0"/><mxCell id="1" parent="0"/><mxCell id="5YabajlBHiJwCQle8Eve-1" value="User Data Stroing Table" style="shape=table;startSize=30;container=1;collapsible=1;childLayout=tableLayout;fixedRows=1;rowLines=0;fontStyle=1;align=center;resizeLast=1;" parent="1" vertex="1"><mxGeometry x="300" y="40" width="250" height="210" as="geometry"/></mxCell><mxCell id="5YabajlBHiJwCQle8Eve-2" value="" style="shape=partialRectangle;collapsible=0;dropTarget=0;pointerEvents=0;fillColor=none;top=0;left=0;bottom=1;right=0;points=[[0,0.5],[1,0.5]];portConstraint=eastwest;" parent="5YabajlBHiJwCQle8Eve-1" vertex="1"><mxGeometry y="30" width="250" height="30" as="geometry"/></mxCell><mxCell id="5YabajlBHiJwCQle8Eve-3" value="PK" style="shape=partialRectangle;connectable=0;fillColor=none;top=0;left=0;bottom=0;right=0;fontStyle=1;overflow=hidden;" parent="5YabajlBHiJwCQle8Eve-2" vertex="1"><mxGeometry width="30" height="30" as="geometry"/></mxCell><mxCell id="5YabajlBHiJwCQle8Eve-4" value="ID auto increment not null" style="shape=partialRectangle;connectable=0;fillColor=none;top=0;left=0;bottom=0;right=0;align=left;spacingLeft=6;fontStyle=5;overflow=hidden;" parent="5YabajlBHiJwCQle8Eve-2" vertex="1"><mxGeometry x="30" width="220" height="30" as="geometry"/></mxCell><mxCell id="5YabajlBHiJwCQle8Eve-5" value="" style="shape=partialRectangle;collapsible=0;dropTarget=0;pointerEvents=0;fillColor=none;top=0;left=0;bottom=0;right=0;points=[[0,0.5],[1,0.5]];portConstraint=eastwest;" parent="5YabajlBHiJwCQle8Eve-1" vertex="1"><mxGeometry y="60" width="250" height="20" as="geometry"/></mxCell><mxCell id="5YabajlBHiJwCQle8Eve-6" value="" style="shape=partialRectangle;connectable=0;fillColor=none;top=0;left=0;bottom=0;right=0;editable=1;overflow=hidden;" parent="5YabajlBHiJwCQle8Eve-5" vertex="1"><mxGeometry width="30" height="20" as="geometry"/></mxCell><mxCell id="5YabajlBHiJwCQle8Eve-7" value="name char(50) not null" style="shape=partialRectangle;connectable=0;fillColor=none;top=0;left=0;bottom=0;right=0;align=left;spacingLeft=6;overflow=hidden;" parent="5YabajlBHiJwCQle8Eve-5" vertex="1"><mxGeometry x="30" width="220" height="20" as="geometry"/></mxCell><mxCell id="5YabajlBHiJwCQle8Eve-8" value="" style="shape=partialRectangle;collapsible=0;dropTarget=0;pointerEvents=0;fillColor=none;top=0;left=0;bottom=0;right=0;points=[[0,0.5],[1,0.5]];portConstraint=eastwest;" parent="5YabajlBHiJwCQle8Eve-1" vertex="1"><mxGeometry y="80" width="250" height="30" as="geometry"/></mxCell><mxCell id="5YabajlBHiJwCQle8Eve-9" value="" style="shape=partialRectangle;connectable=0;fillColor=none;top=0;left=0;bottom=0;right=0;editable=1;overflow=hidden;" parent="5YabajlBHiJwCQle8Eve-8" vertex="1"><mxGeometry width="30" height="30" as="geometry"/></mxCell><mxCell id="5YabajlBHiJwCQle8Eve-10" value="mail char(50) not null" style="shape=partialRectangle;connectable=0;fillColor=none;top=0;left=0;bottom=0;right=0;align=left;spacingLeft=6;overflow=hidden;" parent="5YabajlBHiJwCQle8Eve-8" vertex="1"><mxGeometry x="30" width="220" height="30" as="geometry"/></mxCell><mxCell id="5YabajlBHiJwCQle8Eve-11" value="" style="shape=partialRectangle;collapsible=0;dropTarget=0;pointerEvents=0;fillColor=none;top=0;left=0;bottom=0;right=0;points=[[0,0.5],[1,0.5]];portConstraint=eastwest;" parent="5YabajlBHiJwCQle8Eve-1" vertex="1"><mxGeometry y="110" width="250" height="30" as="geometry"/></mxCell><mxCell id="5YabajlBHiJwCQle8Eve-12" value="" style="shape=partialRectangle;connectable=0;fillColor=none;top=0;left=0;bottom=0;right=0;editable=1;overflow=hidden;" parent="5YabajlBHiJwCQle8Eve-11" vertex="1"><mxGeometry width="30" height="30" as="geometry"/></mxCell><mxCell id="5YabajlBHiJwCQle8Eve-13" value="Password char(50) not null" style="shape=partialRectangle;connectable=0;fillColor=none;top=0;left=0;bottom=0;right=0;align=left;spacingLeft=6;overflow=hidden;" parent="5YabajlBHiJwCQle8Eve-11" vertex="1"><mxGeometry x="30" width="220" height="30" as="geometry"/></mxCell><mxCell id="5YabajlBHiJwCQle8Eve-14" value="Type Boolean/int not null" style="text;strokeColor=none;fillColor=none;spacingLeft=4;spacingRight=4;overflow=hidden;rotatable=0;points=[[0,0.5],[1,0.5]];portConstraint=eastwest;fontSize=12;" parent="1" vertex="1"><mxGeometry x="300" y="180" width="190" height="30" as="geometry"/></mxCell><mxCell id="5YabajlBHiJwCQle8Eve-15" value="Company char(50)" style="text;strokeColor=none;fillColor=none;spacingLeft=4;spacingRight=4;overflow=hidden;rotatable=0;points=[[0,0.5],[1,0.5]];portConstraint=eastwest;fontSize=12;" parent="1" vertex="1"><mxGeometry x="310" y="210" width="150" height="30" as="geometry"/></mxCell><mxCell id="5YabajlBHiJwCQle8Eve-16" value="JOB SEEKER" style="shape=table;startSize=30;container=1;collapsible=1;childLayout=tableLayout;fixedRows=1;rowLines=0;fontStyle=1;align=center;resizeLast=1;" parent="1" vertex="1"><mxGeometry x="560" y="300" width="240" height="541" as="geometry"/></mxCell><mxCell id="5YabajlBHiJwCQle8Eve-17" value="" style="shape=partialRectangle;collapsible=0;dropTarget=0;pointerEvents=0;fillColor=none;top=0;left=0;bottom=1;right=0;points=[[0,0.5],[1,0.5]];portConstraint=eastwest;" parent="5YabajlBHiJwCQle8Eve-16" vertex="1"><mxGeometry y="30" width="240" height="30" as="geometry"/></mxCell><mxCell id="5YabajlBHiJwCQle8Eve-18" value="FK" style="shape=partialRectangle;connectable=0;fillColor=none;top=0;left=0;bottom=0;right=0;fontStyle=1;overflow=hidden;" parent="5YabajlBHiJwCQle8Eve-17" vertex="1"><mxGeometry width="30" height="30" as="geometry"><mxRectangle width="30" height="30" as="alternateBounds"/></mxGeometry></mxCell><mxCell id="5YabajlBHiJwCQle8Eve-19" value="ID" style="shape=partialRectangle;connectable=0;fillColor=none;top=0;left=0;bottom=0;right=0;align=left;spacingLeft=6;fontStyle=5;overflow=hidden;" parent="5YabajlBHiJwCQle8Eve-17" vertex="1"><mxGeometry x="30" width="210" height="30" as="geometry"><mxRectangle width="210" height="30" as="alternateBounds"/></mxGeometry></mxCell><mxCell id="5YabajlBHiJwCQle8Eve-20" value="" style="shape=partialRectangle;collapsible=0;dropTarget=0;pointerEvents=0;fillColor=none;top=0;left=0;bottom=0;right=0;points=[[0,0.5],[1,0.5]];portConstraint=eastwest;" parent="5YabajlBHiJwCQle8Eve-16" vertex="1"><mxGeometry y="60" width="240" height="30" as="geometry"/></mxCell><mxCell id="5YabajlBHiJwCQle8Eve-21" value="" style="shape=partialRectangle;connectable=0;fillColor=none;top=0;left=0;bottom=0;right=0;editable=1;overflow=hidden;" parent="5YabajlBHiJwCQle8Eve-20" vertex="1"><mxGeometry width="30" height="30" as="geometry"><mxRectangle width="30" height="30" as="alternateBounds"/></mxGeometry></mxCell><mxCell id="5YabajlBHiJwCQle8Eve-22" value="skill_1 char(50) not null" style="shape=partialRectangle;connectable=0;fillColor=none;top=0;left=0;bottom=0;right=0;align=left;spacingLeft=6;overflow=hidden;" parent="5YabajlBHiJwCQle8Eve-20" vertex="1"><mxGeometry x="30" width="210" height="30" as="geometry"><mxRectangle width="210" height="30" as="alternateBounds"/></mxGeometry></mxCell><mxCell id="5YabajlBHiJwCQle8Eve-23" value="" style="shape=partialRectangle;collapsible=0;dropTarget=0;pointerEvents=0;fillColor=none;top=0;left=0;bottom=0;right=0;points=[[0,0.5],[1,0.5]];portConstraint=eastwest;" parent="5YabajlBHiJwCQle8Eve-16" vertex="1"><mxGeometry y="90" width="240" height="30" as="geometry"/></mxCell><mxCell id="5YabajlBHiJwCQle8Eve-24" value="" style="shape=partialRectangle;connectable=0;fillColor=none;top=0;left=0;bottom=0;right=0;editable=1;overflow=hidden;" parent="5YabajlBHiJwCQle8Eve-23" vertex="1"><mxGeometry width="30" height="30" as="geometry"><mxRectangle width="30" height="30" as="alternateBounds"/></mxGeometry></mxCell><mxCell id="5YabajlBHiJwCQle8Eve-25" value="skill_2 char(50) not null" style="shape=partialRectangle;connectable=0;fillColor=none;top=0;left=0;bottom=0;right=0;align=left;spacingLeft=6;overflow=hidden;" parent="5YabajlBHiJwCQle8Eve-23" vertex="1"><mxGeometry x="30" width="210" height="30" as="geometry"><mxRectangle width="210" height="30" as="alternateBounds"/></mxGeometry></mxCell><mxCell id="5YabajlBHiJwCQle8Eve-26" value="" style="shape=partialRectangle;collapsible=0;dropTarget=0;pointerEvents=0;fillColor=none;top=0;left=0;bottom=0;right=0;points=[[0,0.5],[1,0.5]];portConstraint=eastwest;" parent="5YabajlBHiJwCQle8Eve-16" vertex="1"><mxGeometry y="120" width="240" height="30" as="geometry"/></mxCell><mxCell id="5YabajlBHiJwCQle8Eve-27" value="" style="shape=partialRectangle;connectable=0;fillColor=none;top=0;left=0;bottom=0;right=0;editable=1;overflow=hidden;" parent="5YabajlBHiJwCQle8Eve-26" vertex="1"><mxGeometry width="30" height="30" as="geometry"><mxRectangle width="30" height="30" as="alternateBounds"/></mxGeometry></mxCell><mxCell id="5YabajlBHiJwCQle8Eve-28" value="" style="shape=partialRectangle;connectable=0;fillColor=none;top=0;left=0;bottom=0;right=0;align=left;spacingLeft=6;overflow=hidden;" parent="5YabajlBHiJwCQle8Eve-26" vertex="1"><mxGeometry x="30" width="210" height="30" as="geometry"><mxRectangle width="210" height="30" as="alternateBounds"/></mxGeometry></mxCell><mxCell id="5YabajlBHiJwCQle8Eve-29" value="" style="edgeStyle=entityRelationEdgeStyle;fontSize=12;html=1;endArrow=ERone;endFill=1;exitX=1;exitY=0.5;exitDx=0;exitDy=0;entryX=1;entryY=0.5;entryDx=0;entryDy=0;" parent="1" source="5YabajlBHiJwCQle8Eve-2" target="5YabajlBHiJwCQle8Eve-17" edge="1"><mxGeometry width="100" height="100" relative="1" as="geometry"><mxPoint x="370" y="340" as="sourcePoint"/><mxPoint x="470" y="240" as="targetPoint"/></mxGeometry></mxCell><mxCell id="5YabajlBHiJwCQle8Eve-31" value="location_1 char(50) not null" style="text;strokeColor=none;fillColor=none;spacingLeft=4;spacingRight=4;overflow=hidden;rotatable=0;points=[[0,0.5],[1,0.5]];portConstraint=eastwest;fontSize=12;" parent="1" vertex="1"><mxGeometry x="590" y="450" width="160" height="30" as="geometry"/></mxCell><mxCell id="5YabajlBHiJwCQle8Eve-33" value="location_2 char(50) not null" style="text;strokeColor=none;fillColor=none;spacingLeft=4;spacingRight=4;overflow=hidden;rotatable=0;points=[[0,0.5],[1,0.5]];portConstraint=eastwest;fontSize=12;" parent="1" vertex="1"><mxGeometry x="595" y="480" width="165" height="30" as="geometry"/></mxCell><mxCell id="5YabajlBHiJwCQle8Eve-34" value="Experience char(10) " style="text;strokeColor=none;fillColor=none;spacingLeft=4;spacingRight=4;overflow=hidden;rotatable=0;points=[[0,0.5],[1,0.5]];portConstraint=eastwest;fontSize=12;" parent="1" vertex="1"><mxGeometry x="600" y="510" width="150" height="30" as="geometry"/></mxCell><mxCell id="5YabajlBHiJwCQle8Eve-35" value="previous experience char(100)" style="text;strokeColor=none;fillColor=none;spacingLeft=4;spacingRight=4;overflow=hidden;rotatable=0;points=[[0,0.5],[1,0.5]];portConstraint=eastwest;fontSize=12;" parent="1" vertex="1"><mxGeometry x="600" y="540" width="180" height="30" as="geometry"/></mxCell><mxCell id="5YabajlBHiJwCQle8Eve-36" value="resume binary file" style="text;strokeColor=none;fillColor=none;spacingLeft=4;spacingRight=4;overflow=hidden;rotatable=0;points=[[0,0.5],[1,0.5]];portConstraint=eastwest;fontSize=12;" parent="1" vertex="1"><mxGeometry x="600" y="570" width="170" height="30" as="geometry"/></mxCell><mxCell id="5YabajlBHiJwCQle8Eve-51" value="Job Posting Table" style="shape=table;startSize=30;container=1;collapsible=1;childLayout=tableLayout;fixedRows=1;rowLines=0;fontStyle=1;align=center;resizeLast=1;" parent="1" vertex="1"><mxGeometry x="30" y="320" width="300" height="406" as="geometry"/></mxCell><mxCell id="5YabajlBHiJwCQle8Eve-52" value="" style="shape=partialRectangle;collapsible=0;dropTarget=0;pointerEvents=0;fillColor=none;top=0;left=0;bottom=1;right=0;points=[[0,0.5],[1,0.5]];portConstraint=eastwest;" parent="5YabajlBHiJwCQle8Eve-51" vertex="1"><mxGeometry y="30" width="300" height="30" as="geometry"/></mxCell><mxCell id="5YabajlBHiJwCQle8Eve-53" value="PK" style="shape=partialRectangle;connectable=0;fillColor=none;top=0;left=0;bottom=0;right=0;fontStyle=1;overflow=hidden;" parent="5YabajlBHiJwCQle8Eve-52" vertex="1"><mxGeometry width="30" height="30" as="geometry"><mxRectangle width="30" height="30" as="alternateBounds"/></mxGeometry></mxCell><mxCell id="5YabajlBHiJwCQle8Eve-54" value="JOB_ID" style="shape=partialRectangle;connectable=0;fillColor=none;top=0;left=0;bottom=0;right=0;align=left;spacingLeft=6;fontStyle=5;overflow=hidden;" parent="5YabajlBHiJwCQle8Eve-52" vertex="1"><mxGeometry x="30" width="270" height="30" as="geometry"><mxRectangle width="270" height="30" as="alternateBounds"/></mxGeometry></mxCell><mxCell id="5YabajlBHiJwCQle8Eve-55" value="" style="shape=partialRectangle;collapsible=0;dropTarget=0;pointerEvents=0;fillColor=none;top=0;left=0;bottom=0;right=0;points=[[0,0.5],[1,0.5]];portConstraint=eastwest;" parent="5YabajlBHiJwCQle8Eve-51" vertex="1"><mxGeometry y="60" width="300" height="30" as="geometry"/></mxCell><mxCell id="5YabajlBHiJwCQle8Eve-56" value="" style="shape=partialRectangle;connectable=0;fillColor=none;top=0;left=0;bottom=0;right=0;editable=1;overflow=hidden;" parent="5YabajlBHiJwCQle8Eve-55" vertex="1"><mxGeometry width="30" height="30" as="geometry"><mxRectangle width="30" height="30" as="alternateBounds"/></mxGeometry></mxCell><mxCell id="5YabajlBHiJwCQle8Eve-57" value="EXPERIENCE char(10) not null" style="shape=partialRectangle;connectable=0;fillColor=none;top=0;left=0;bottom=0;right=0;align=left;spacingLeft=6;overflow=hidden;" parent="5YabajlBHiJwCQle8Eve-55" vertex="1"><mxGeometry x="30" width="270" height="30" as="geometry"><mxRectangle width="270" height="30" as="alternateBounds"/></mxGeometry></mxCell><mxCell id="5YabajlBHiJwCQle8Eve-58" value="" style="shape=partialRectangle;collapsible=0;dropTarget=0;pointerEvents=0;fillColor=none;top=0;left=0;bottom=0;right=0;points=[[0,0.5],[1,0.5]];portConstraint=eastwest;" parent="5YabajlBHiJwCQle8Eve-51" vertex="1"><mxGeometry y="90" width="300" height="40" as="geometry"/></mxCell><mxCell id="5YabajlBHiJwCQle8Eve-59" value="" style="shape=partialRectangle;connectable=0;fillColor=none;top=0;left=0;bottom=0;right=0;editable=1;overflow=hidden;" parent="5YabajlBHiJwCQle8Eve-58" vertex="1"><mxGeometry width="30" height="40" as="geometry"><mxRectangle width="30" height="40" as="alternateBounds"/></mxGeometry></mxCell><mxCell id="5YabajlBHiJwCQle8Eve-60" value="SKILL1 char(20) not null" style="shape=partialRectangle;connectable=0;fillColor=none;top=0;left=0;bottom=0;right=0;align=left;spacingLeft=6;overflow=hidden;" parent="5YabajlBHiJwCQle8Eve-58" vertex="1"><mxGeometry x="30" width="270" height="40" as="geometry"><mxRectangle width="270" height="40" as="alternateBounds"/></mxGeometry></mxCell><mxCell id="5YabajlBHiJwCQle8Eve-61" value="" style="shape=partialRectangle;collapsible=0;dropTarget=0;pointerEvents=0;fillColor=none;top=0;left=0;bottom=0;right=0;points=[[0,0.5],[1,0.5]];portConstraint=eastwest;" parent="5YabajlBHiJwCQle8Eve-51" vertex="1"><mxGeometry y="130" width="300" height="30" as="geometry"/></mxCell><mxCell id="5YabajlBHiJwCQle8Eve-62" value="" style="shape=partialRectangle;connectable=0;fillColor=none;top=0;left=0;bottom=0;right=0;editable=1;overflow=hidden;" parent="5YabajlBHiJwCQle8Eve-61" vertex="1"><mxGeometry width="30" height="30" as="geometry"><mxRectangle width="30" height="30" as="alternateBounds"/></mxGeometry></mxCell><mxCell id="5YabajlBHiJwCQle8Eve-63" value="SKILL2 char(20) " style="shape=partialRectangle;connectable=0;fillColor=none;top=0;left=0;bottom=0;right=0;align=left;spacingLeft=6;overflow=hidden;" parent="5YabajlBHiJwCQle8Eve-61" vertex="1"><mxGeometry x="30" width="270" height="30" as="geometry"><mxRectangle width="270" height="30" as="alternateBounds"/></mxGeometry></mxCell><mxCell id="5YabajlBHiJwCQle8Eve-64" value="" style="edgeStyle=entityRelationEdgeStyle;fontSize=12;html=1;endArrow=ERzeroToOne;endFill=1;exitX=0;exitY=0.5;exitDx=0;exitDy=0;entryX=0;entryY=0.5;entryDx=0;entryDy=0;" parent="1" source="5YabajlBHiJwCQle8Eve-52" target="5YabajlBHiJwCQle8Eve-2" edge="1"><mxGeometry width="100" height="100" relative="1" as="geometry"><mxPoint x="150" y="190" as="sourcePoint"/><mxPoint x="250" y="90" as="targetPoint"/></mxGeometry></mxCell><mxCell id="5YabajlBHiJwCQle8Eve-68" value="DESCRIPTION char(5000) not null" style="text;strokeColor=none;fillColor=none;spacingLeft=4;spacingRight=4;overflow=hidden;rotatable=0;points=[[0,0.5],[1,0.5]];portConstraint=eastwest;fontSize=12;" parent="1" vertex="1"><mxGeometry x="60" y="480" width="240" height="30" as="geometry"/></mxCell><mxCell id="5YabajlBHiJwCQle8Eve-69" value="LOCATION1 char(50) not null" style="text;strokeColor=none;fillColor=none;spacingLeft=4;spacingRight=4;overflow=hidden;rotatable=0;points=[[0,0.5],[1,0.5]];portConstraint=eastwest;fontSize=12;" parent="1" vertex="1"><mxGeometry x="60" y="510" width="230" height="30" as="geometry"/></mxCell><mxCell id="5YabajlBHiJwCQle8Eve-70" value=" FK     createdby  int  reference user.id" style="text;strokeColor=none;fillColor=none;spacingLeft=4;spacingRight=4;overflow=hidden;rotatable=0;points=[[0,0.5],[1,0.5]];portConstraint=eastwest;fontSize=12;" parent="1" vertex="1"><mxGeometry x="30" y="540" width="290" height="30" as="geometry"/></mxCell><mxCell id="5YabajlBHiJwCQle8Eve-71" value="link char(3000) not null" style="text;strokeColor=none;fillColor=none;spacingLeft=4;spacingRight=4;overflow=hidden;rotatable=0;points=[[0,0.5],[1,0.5]];portConstraint=eastwest;fontSize=12;" parent="1" vertex="1"><mxGeometry x="70" y="570" width="240" height="30" as="geometry"/></mxCell><mxCell id="2" value="&amp;nbsp;Title char(50) not null" style="text;html=1;strokeColor=none;fillColor=none;align=center;verticalAlign=middle;whiteSpace=wrap;rounded=0;" parent="1" vertex="1"><mxGeometry x="65" y="600" width="170" height="30" as="geometry"/></mxCell><mxCell id="3" value="Remote char(5) not null" style="text;html=1;strokeColor=none;fillColor=none;align=center;verticalAlign=middle;whiteSpace=wrap;rounded=0;" parent="1" vertex="1"><mxGeometry x="30" y="637" width="213" height="30" as="geometry"/></mxCell><mxCell id="4" value="Location 2 char(50)&amp;nbsp;" style="text;html=1;strokeColor=none;fillColor=none;align=center;verticalAlign=middle;whiteSpace=wrap;rounded=0;" parent="1" vertex="1"><mxGeometry x="68" y="667" width="214" height="30" as="geometry"/></mxCell><mxCell id="5" value="type&amp;nbsp; char(20) not null" style="text;html=1;strokeColor=none;fillColor=none;align=center;verticalAlign=middle;whiteSpace=wrap;rounded=0;" parent="1" vertex="1"><mxGeometry x="74" y="689" width="184" height="30" as="geometry"/></mxCell><mxCell id="6" value="Remote char(5)&amp;nbsp;" style="text;html=1;strokeColor=none;fillColor=none;align=center;verticalAlign=middle;whiteSpace=wrap;rounded=0;" parent="1" vertex="1"><mxGeometry x="600" y="600" width="178" height="30" as="geometry"/></mxCell><mxCell id="7" value="Graduation_Year int" style="text;html=1;strokeColor=none;fillColor=none;align=center;verticalAlign=middle;whiteSpace=wrap;rounded=0;" parent="1" vertex="1"><mxGeometry x="598" y="630" width="179" height="30" as="geometry"/></mxCell><mxCell id="8" value="BIO char(1500)&amp;nbsp;" style="text;html=1;strokeColor=none;fillColor=none;align=center;verticalAlign=middle;whiteSpace=wrap;rounded=0;" parent="1" vertex="1"><mxGeometry x="598" y="654" width="175" height="30" as="geometry"/></mxCell><mxCell id="9" value="GITHUB char(100)" style="text;html=1;strokeColor=none;fillColor=none;align=center;verticalAlign=middle;whiteSpace=wrap;rounded=0;" parent="1" vertex="1"><mxGeometry x="600" y="684" width="171" height="30" as="geometry"/></mxCell><mxCell id="10" value="Linkedin char(100)" style="text;html=1;strokeColor=none;fillColor=none;align=center;verticalAlign=middle;whiteSpace=wrap;rounded=0;" parent="1" vertex="1"><mxGeometry x="605" y="714" width="171" height="30" as="geometry"/></mxCell><mxCell id="11" value="jobtype char(50)" style="text;html=1;strokeColor=none;fillColor=none;align=center;verticalAlign=middle;whiteSpace=wrap;rounded=0;" parent="1" vertex="1"><mxGeometry x="617" y="417" width="126" height="30" as="geometry"/></mxCell><mxCell id="13" value="Text" style="text;html=1;strokeColor=none;fillColor=none;align=center;verticalAlign=middle;whiteSpace=wrap;rounded=0;" parent="1" vertex="1"><mxGeometry x="641" y="587" width="60" height="30" as="geometry"/></mxCell><mxCell id="14" value="occupation char(25)" style="text;html=1;strokeColor=none;fillColor=none;align=center;verticalAlign=middle;whiteSpace=wrap;rounded=0;" parent="1" vertex="1"><mxGeometry x="608" y="748" width="163" height="30" as="geometry"/></mxCell><mxCell id="15" value="college char(50)" style="text;html=1;strokeColor=none;fillColor=none;align=center;verticalAlign=middle;whiteSpace=wrap;rounded=0;" parent="1" vertex="1"><mxGeometry x="605" y="793" width="163" height="30" as="geometry"/></mxCell><mxCell id="16" value="Applied" style="shape=table;startSize=30;container=1;collapsible=1;childLayout=tableLayout;fixedRows=1;rowLines=0;fontStyle=1;align=center;resizeLast=1;" vertex="1" parent="1"><mxGeometry x="105" y="776" width="229" height="186" as="geometry"/></mxCell><mxCell id="17" value="" style="shape=partialRectangle;collapsible=0;dropTarget=0;pointerEvents=0;fillColor=none;top=0;left=0;bottom=1;right=0;points=[[0,0.5],[1,0.5]];portConstraint=eastwest;" vertex="1" parent="16"><mxGeometry y="30" width="229" height="30" as="geometry"/></mxCell><mxCell id="18" value="PK" style="shape=partialRectangle;connectable=0;fillColor=none;top=0;left=0;bottom=0;right=0;fontStyle=1;overflow=hidden;" vertex="1" parent="17"><mxGeometry width="30" height="30" as="geometry"><mxRectangle width="30" height="30" as="alternateBounds"/></mxGeometry></mxCell><mxCell id="19" value="ID" style="shape=partialRectangle;connectable=0;fillColor=none;top=0;left=0;bottom=0;right=0;align=left;spacingLeft=6;fontStyle=5;overflow=hidden;" vertex="1" parent="17"><mxGeometry x="30" width="199" height="30" as="geometry"><mxRectangle width="199" height="30" as="alternateBounds"/></mxGeometry></mxCell><mxCell id="20" value="" style="shape=partialRectangle;collapsible=0;dropTarget=0;pointerEvents=0;fillColor=none;top=0;left=0;bottom=0;right=0;points=[[0,0.5],[1,0.5]];portConstraint=eastwest;" vertex="1" parent="16"><mxGeometry y="60" width="229" height="30" as="geometry"/></mxCell><mxCell id="21" value="" style="shape=partialRectangle;connectable=0;fillColor=none;top=0;left=0;bottom=0;right=0;editable=1;overflow=hidden;" vertex="1" parent="20"><mxGeometry width="30" height="30" as="geometry"><mxRectangle width="30" height="30" as="alternateBounds"/></mxGeometry></mxCell><mxCell id="22" value="Job id reference jobposting.jobd" style="shape=partialRectangle;connectable=0;fillColor=none;top=0;left=0;bottom=0;right=0;align=left;spacingLeft=6;overflow=hidden;" vertex="1" parent="20"><mxGeometry x="30" width="199" height="30" as="geometry"><mxRectangle width="199" height="30" as="alternateBounds"/></mxGeometry></mxCell><mxCell id="23" value="" style="shape=partialRectangle;collapsible=0;dropTarget=0;pointerEvents=0;fillColor=none;top=0;left=0;bottom=0;right=0;points=[[0,0.5],[1,0.5]];portConstraint=eastwest;" vertex="1" parent="16"><mxGeometry y="90" width="229" height="30" as="geometry"/></mxCell><mxCell id="24" value="" style="shape=partialRectangle;connectable=0;fillColor=none;top=0;left=0;bottom=0;right=0;editable=1;overflow=hidden;" vertex="1" parent="23"><mxGeometry width="30" height="30" as="geometry"><mxRectangle width="30" height="30" as="alternateBounds"/></mxGeometry></mxCell><mxCell id="25" value="" style="shape=partialRectangle;connectable=0;fillColor=none;top=0;left=0;bottom=0;right=0;align=left;spacingLeft=6;overflow=hidden;" vertex="1" parent="23"><mxGeometry x="30" width="199" height="30" as="geometry"><mxRectangle width="199" height="30" as="alternateBounds"/></mxGeometry></mxCell><mxCell id="26" value="" style="shape=partialRectangle;collapsible=0;dropTarget=0;pointerEvents=0;fillColor=none;top=0;left=0;bottom=0;right=0;points=[[0,0.5],[1,0.5]];portConstraint=eastwest;" vertex="1" parent="16"><mxGeometry y="120" width="229" height="30" as="geometry"/></mxCell><mxCell id="27" value="" style="shape=partialRectangle;connectable=0;fillColor=none;top=0;left=0;bottom=0;right=0;editable=1;overflow=hidden;" vertex="1" parent="26"><mxGeometry width="30" height="30" as="geometry"><mxRectangle width="30" height="30" as="alternateBounds"/></mxGeometry></mxCell><mxCell id="28" value="" style="shape=partialRectangle;connectable=0;fillColor=none;top=0;left=0;bottom=0;right=0;align=left;spacingLeft=6;overflow=hidden;" vertex="1" parent="26"><mxGeometry x="30" width="199" height="30" as="geometry"><mxRectangle width="199" height="30" as="alternateBounds"/></mxGeometry></mxCell></root></mxGraphModel></diagram></mxfile>